mtllib item_direction.mtl
o Cylinder.001
v 0.584859 0.436110 0.874908
v 0.659354 0.514439 0.772372
v 0.705396 0.514439 0.914073
v 0.584859 0.514440 1.001649
v 0.464321 0.514439 0.914073
v 0.510363 0.514439 0.772372
v 0.705396 0.641182 0.835744
v 0.659354 0.641182 0.977444
v 0.510363 0.641182 0.977444
v 0.464321 0.641182 0.835744
v 0.584859 0.641182 0.748167
v 0.584859 0.719512 0.874908
v 0.655708 0.457272 0.897928
v 0.628646 0.457272 0.814639
v 0.699496 0.503313 0.837659
v 0.584859 0.503313 0.754370
v 0.541071 0.457272 0.814639
v 0.584859 0.457273 0.949404
v 0.655709 0.503313 0.972425
v 0.514009 0.457272 0.897928
v 0.514008 0.503313 0.972425
v 0.470221 0.503313 0.837659
v 0.628646 0.577811 0.740142
v 0.541071 0.577811 0.740142
v 0.726560 0.577811 0.874908
v 0.699497 0.577811 0.791618
v 0.628646 0.577811 1.009674
v 0.699497 0.577811 0.958198
v 0.470220 0.577811 0.958198
v 0.541071 0.577811 1.009674
v 0.470220 0.577811 0.791618
v 0.443157 0.577811 0.874908
v 0.655709 0.652308 0.777391
v 0.699496 0.652308 0.912157
v 0.584859 0.652308 0.995446
v 0.470221 0.652308 0.912157
v 0.514008 0.652308 0.777391
v 0.655708 0.698349 0.851888
v 0.584859 0.698349 0.800412
v 0.628646 0.698349 0.935177
v 0.541071 0.698349 0.935177
v 0.514009 0.698349 0.851888
v 0.649105 0.608429 0.910870
v 0.649105 0.047528 0.910870
v 0.645187 0.608429 0.871087
v 0.645187 0.047528 0.871087
v 0.633582 0.608429 0.832833
v 0.633583 0.047528 0.832833
v 0.614738 0.608429 0.797578
v 0.614738 0.047528 0.797578
v 0.589378 0.608429 0.766677
v 0.589378 0.047528 0.766677
v 0.558477 0.608429 0.741317
v 0.558477 0.047528 0.741317
v 0.523222 0.608429 0.722473
v 0.523222 0.047528 0.722473
v 0.484968 0.608429 0.710868
v 0.484968 0.047528 0.710868
v 0.445185 0.608429 0.706950
v 0.445185 0.047528 0.706950
v 0.405402 0.608429 0.710868
v 0.405402 0.047528 0.710868
v 0.367148 0.608429 0.722473
v 0.367148 0.047528 0.722473
v 0.331893 0.608429 0.741317
v 0.331893 0.047528 0.741317
v 0.300992 0.608429 0.766677
v 0.300992 0.047528 0.766677
v 0.275632 0.608429 0.797578
v 0.275632 0.047528 0.797578
v 0.256788 0.608429 0.832833
v 0.256788 0.047528 0.832833
v 0.245183 0.608429 0.871087
v 0.245183 0.047528 0.871087
v 0.241265 0.608429 0.910870
v 0.241265 0.047528 0.910870
v 0.245183 0.608429 0.950653
v 0.245183 0.047528 0.950653
v 0.256788 0.608429 0.988907
v 0.256788 0.047528 0.988907
v 0.275632 0.608429 1.024162
v 0.275632 0.047528 1.024162
v 0.300992 0.608429 1.055063
v 0.300992 0.047528 1.055063
v 0.331893 0.608429 1.080423
v 0.331893 0.047528 1.080423
v 0.367148 0.608429 1.099268
v 0.367148 0.047528 1.099268
v 0.405402 0.608429 1.110872
v 0.405402 0.047528 1.110872
v 0.445185 0.608429 1.114790
v 0.445185 0.047528 1.114790
v 0.484968 0.608429 1.110872
v 0.484968 0.047528 1.110872
v 0.523222 0.608429 1.099267
v 0.523222 0.047528 1.099267
v 0.558477 0.608429 1.080423
v 0.558477 0.047528 1.080423
v 0.589378 0.608429 1.055063
v 0.589378 0.047528 1.055063
v 0.614738 0.608429 1.024162
v 0.614739 0.047528 1.024162
v 0.633583 0.608429 0.988907
v 0.633583 0.047528 0.988907
v 0.645187 0.608429 0.950653
v 0.645187 0.047528 0.950653
v -0.406158 0.670618 0.910870
v 0.627582 0.670618 0.910870
v -0.406158 0.666700 0.871087
v 0.627582 0.666700 0.871087
v -0.406158 0.655096 0.832833
v 0.627582 0.655096 0.832833
v -0.406158 0.636251 0.797578
v 0.627582 0.636251 0.797578
v -0.406158 0.610891 0.766677
v 0.627582 0.610891 0.766677
v -0.406158 0.579990 0.741317
v 0.627582 0.579990 0.741317
v -0.406158 0.544735 0.722473
v 0.627582 0.544735 0.722473
v -0.406158 0.506481 0.710868
v 0.627582 0.506481 0.710868
v -0.406158 0.466698 0.706950
v 0.627582 0.466698 0.706950
v -0.406158 0.426915 0.710868
v 0.627582 0.426915 0.710868
v -0.406158 0.388661 0.722473
v 0.627582 0.388661 0.722473
v -0.406158 0.353406 0.741317
v 0.627582 0.353406 0.741317
v -0.406158 0.322505 0.766677
v 0.627582 0.322505 0.766677
v -0.406158 0.297145 0.797578
v 0.627582 0.297145 0.797578
v -0.406158 0.278301 0.832833
v 0.627582 0.278301 0.832833
v -0.406158 0.266696 0.871087
v 0.627582 0.266696 0.871087
v -0.406158 0.262778 0.910870
v 0.627582 0.262778 0.910870
v -0.406158 0.266696 0.950653
v 0.627582 0.266696 0.950653
v -0.406158 0.278301 0.988907
v 0.627582 0.278301 0.988907
v -0.406158 0.297145 1.024162
v 0.627582 0.297145 1.024162
v -0.406158 0.322505 1.055063
v 0.627582 0.322505 1.055063
v -0.406158 0.353406 1.080423
v 0.627582 0.353406 1.080423
v -0.406158 0.388661 1.099268
v 0.627582 0.388661 1.099268
v -0.406158 0.426915 1.110872
v 0.627582 0.426915 1.110872
v -0.406158 0.466698 1.114790
v 0.627582 0.466698 1.114790
v -0.406158 0.506481 1.110872
v 0.627582 0.506481 1.110872
v -0.406158 0.544735 1.099267
v 0.627582 0.544735 1.099267
v -0.406158 0.579990 1.080423
v 0.627582 0.579990 1.080423
v -0.406158 0.610891 1.055063
v 0.627582 0.610891 1.055063
v -0.406158 0.636251 1.024162
v 0.627582 0.636251 1.024162
v -0.406158 0.655096 0.988907
v 0.627582 0.655096 0.988907
v -0.406158 0.666700 0.950653
v 0.627582 0.666700 0.950653
vn 0.315100 -0.943500 -0.102400
vn 0.268000 -0.661700 -0.700200
vn 0.194700 -0.943500 0.268000
vn -0.194700 -0.943500 0.268000
vn -0.315100 -0.943500 -0.102400
vn 0.268000 -0.330400 -0.905000
vn 0.943500 -0.330400 -0.024700
vn 0.315100 -0.330400 0.889700
vn -0.748800 -0.330400 0.574600
vn -0.777900 -0.330400 -0.534600
vn 0.583100 -0.125600 -0.802600
vn 0.943500 -0.125600 0.306600
vn -0.000000 -0.125600 0.992100
vn -0.943500 -0.125600 0.306600
vn -0.583100 -0.125600 -0.802600
vn 0.628400 0.661700 -0.408900
vn 0.583100 0.661700 0.471300
vn -0.268000 0.661700 0.700200
vn -0.748800 0.661700 -0.038500
vn -0.194700 0.661700 -0.724000
vn -0.194700 0.943500 -0.268000
vn -0.356800 0.794700 -0.491100
vn -0.628400 0.661700 -0.408900
vn -0.315100 0.943500 0.102400
vn -0.577300 0.794700 0.187600
vn -0.583100 0.661700 0.471300
vn -0.000000 0.943500 0.331300
vn -0.000000 0.794700 0.607100
vn 0.268000 0.661700 0.700200
vn 0.315100 0.943500 0.102400
vn 0.577300 0.794700 0.187600
vn 0.748800 0.661700 -0.038500
vn 0.194700 0.943500 -0.268000
vn 0.356800 0.794700 -0.491100
vn 0.194700 0.661700 -0.724000
vn -0.315100 0.330400 -0.889700
vn -0.577300 0.187600 -0.794700
vn -0.748800 0.330400 -0.574600
vn -0.943500 0.330400 0.024700
vn -0.934200 0.187600 0.303500
vn -0.777900 0.330400 0.534600
vn -0.268000 0.330400 0.905000
vn 0.000000 0.187600 0.982200
vn 0.268000 0.330400 0.905000
vn 0.777900 0.330400 0.534600
vn 0.934200 0.187600 0.303500
vn 0.943500 0.330400 0.024700
vn 0.748800 0.330400 -0.574600
vn 0.577300 0.187600 -0.794700
vn 0.315100 0.330400 -0.889700
vn -0.943500 0.125600 -0.306600
vn -0.934200 -0.187600 -0.303500
vn -0.943500 -0.330400 -0.024700
vn -0.583100 0.125600 0.802600
vn -0.577300 -0.187600 0.794700
vn -0.315100 -0.330400 0.889700
vn 0.583100 0.125600 0.802600
vn 0.577300 -0.187600 0.794700
vn 0.748800 -0.330400 0.574600
vn 0.943500 0.125600 -0.306600
vn 0.934200 -0.187600 -0.303500
vn 0.777900 -0.330400 -0.534600
vn 0.000000 0.125600 -0.992100
vn 0.000000 -0.187600 -0.982200
vn -0.268000 -0.330400 -0.905000
vn -0.583100 -0.661700 -0.471300
vn -0.577300 -0.794700 -0.187600
vn -0.748800 -0.661700 0.038500
vn -0.628400 -0.661700 0.408900
vn -0.356800 -0.794700 0.491100
vn -0.194700 -0.661700 0.724000
vn 0.194700 -0.661700 0.724000
vn 0.356800 -0.794700 0.491100
vn 0.628400 -0.661700 0.408900
vn -0.268000 -0.661700 -0.700200
vn 0.000000 -0.794700 -0.607100
vn 0.000000 -0.943500 -0.331300
vn 0.748800 -0.661700 0.038500
vn 0.577300 -0.794700 -0.187600
vn 0.583100 -0.661700 -0.471300
vn 0.995200 0.000000 -0.098000
vn 0.956900 0.000000 -0.290300
vn 0.881900 0.000000 -0.471400
vn 0.773000 0.000000 -0.634400
vn 0.634400 0.000000 -0.773000
vn 0.471400 0.000000 -0.881900
vn 0.290300 0.000000 -0.956900
vn 0.098000 0.000000 -0.995200
vn -0.098000 0.000000 -0.995200
vn -0.290300 0.000000 -0.956900
vn -0.471400 -0.000000 -0.881900
vn -0.634400 -0.000000 -0.773000
vn -0.773000 -0.000000 -0.634400
vn -0.881900 -0.000000 -0.471400
vn -0.956900 -0.000000 -0.290300
vn -0.995200 -0.000000 -0.098000
vn -0.995200 -0.000000 0.098000
vn -0.956900 -0.000000 0.290300
vn -0.881900 -0.000000 0.471400
vn -0.773000 -0.000000 0.634400
vn -0.634400 -0.000000 0.773000
vn -0.471400 0.000000 0.881900
vn -0.290300 0.000000 0.956900
vn -0.098000 -0.000000 0.995200
vn 0.098000 0.000000 0.995200
vn 0.290300 0.000000 0.956900
vn 0.471400 0.000000 0.881900
vn 0.634400 0.000000 0.773000
vn 0.773000 0.000000 0.634400
vn 0.881900 0.000000 0.471400
vn 0.000000 -1.000000 -0.000000
vn 0.995200 0.000000 0.098000
vn 0.956900 0.000000 0.290300
vn -0.000000 1.000000 0.000000
vn 0.000000 0.995200 -0.098000
vn 0.000000 0.956900 -0.290300
vn 0.000000 0.881900 -0.471400
vn 0.000000 0.773000 -0.634400
vn 0.000000 0.634400 -0.773000
vn 0.000000 0.471400 -0.881900
vn -0.000000 0.290300 -0.956900
vn 0.000000 0.098000 -0.995200
vn 0.000000 -0.098000 -0.995200
vn 0.000000 -0.290300 -0.956900
vn 0.000000 -0.471400 -0.881900
vn 0.000000 -0.634400 -0.773000
vn 0.000000 -0.773000 -0.634400
vn 0.000000 -0.881900 -0.471400
vn 0.000000 -0.956900 -0.290300
vn 0.000000 -0.995200 -0.098000
vn 0.000000 -0.995200 0.098000
vn 0.000000 -0.956900 0.290300
vn 0.000000 -0.881900 0.471400
vn 0.000000 -0.773000 0.634400
vn -0.000000 -0.634400 0.773000
vn -0.000000 -0.471400 0.881900
vn 0.000000 -0.290300 0.956900
vn 0.000000 -0.098000 0.995200
vn 0.000000 0.098000 0.995200
vn -0.000000 0.290300 0.956900
vn -0.000000 0.471400 0.881900
vn 0.000000 0.634400 0.773000
vn 0.000000 0.773000 0.634400
vn 0.000000 0.881900 0.471400
vn 1.000000 0.000000 0.000000
vn 0.000000 0.995200 0.098000
vn -0.000000 0.956900 0.290300
vn -1.000000 -0.000000 0.000000
usemtl None
s off
f 1//1 14//1 13//1
f 2//2 14//2 16//2
f 1//3 13//3 18//3
f 1//4 18//4 20//4
f 1//5 20//5 17//5
f 2//6 16//6 23//6
f 3//7 15//7 25//7
f 4//8 19//8 27//8
f 5//9 21//9 29//9
f 6//10 22//10 31//10
f 2//11 23//11 26//11
f 3//12 25//12 28//12
f 4//13 27//13 30//13
f 5//14 29//14 32//14
f 6//15 31//15 24//15
f 7//16 33//16 38//16
f 8//17 34//17 40//17
f 9//18 35//18 41//18
f 10//19 36//19 42//19
f 11//20 37//20 39//20
f 39//21 42//21 12//21
f 39//22 37//22 42//22
f 37//23 10//23 42//23
f 42//24 41//24 12//24
f 42//25 36//25 41//25
f 36//26 9//26 41//26
f 41//27 40//27 12//27
f 41//28 35//28 40//28
f 35//29 8//29 40//29
f 40//30 38//30 12//30
f 40//31 34//31 38//31
f 34//32 7//32 38//32
f 38//33 39//33 12//33
f 38//34 33//34 39//34
f 33//35 11//35 39//35
f 24//36 37//36 11//36
f 24//37 31//37 37//37
f 31//38 10//38 37//38
f 32//39 36//39 10//39
f 32//40 29//40 36//40
f 29//41 9//41 36//41
f 30//42 35//42 9//42
f 30//43 27//43 35//43
f 27//44 8//44 35//44
f 28//45 34//45 8//45
f 28//46 25//46 34//46
f 25//47 7//47 34//47
f 26//48 33//48 7//48
f 26//49 23//49 33//49
f 23//50 11//50 33//50
f 31//51 32//51 10//51
f 31//52 22//52 32//52
f 22//53 5//53 32//53
f 29//54 30//54 9//54
f 29//55 21//55 30//55
f 21//56 4//56 30//56
f 27//57 28//57 8//57
f 27//58 19//58 28//58
f 19//59 3//59 28//59
f 25//60 26//60 7//60
f 25//61 15//61 26//61
f 15//62 2//62 26//62
f 23//63 24//63 11//63
f 23//64 16//64 24//64
f 16//65 6//65 24//65
f 17//66 22//66 6//66
f 17//67 20//67 22//67
f 20//68 5//68 22//68
f 20//69 21//69 5//69
f 20//70 18//70 21//70
f 18//71 4//71 21//71
f 18//72 19//72 4//72
f 18//73 13//73 19//73
f 13//74 3//74 19//74
f 16//75 17//75 6//75
f 16//76 14//76 17//76
f 14//77 1//77 17//77
f 13//78 15//78 3//78
f 13//79 14//79 15//79
f 14//80 2//80 15//80
f 44//81 46//81 45//81
f 46//82 48//82 47//82
f 48//83 50//83 49//83
f 50//84 52//84 51//84
f 52//85 54//85 53//85
f 54//86 56//86 55//86
f 56//87 58//87 57//87
f 58//88 60//88 59//88
f 60//89 62//89 61//89
f 62//90 64//90 63//90
f 64//91 66//91 65//91
f 66//92 68//92 67//92
f 68//93 70//93 69//93
f 69//94 70//94 72//94
f 72//95 74//95 73//95
f 74//96 76//96 75//96
f 76//97 78//97 77//97
f 78//98 80//98 79//98
f 80//99 82//99 81//99
f 82//100 84//100 83//100
f 84//101 86//101 85//101
f 85//102 86//102 88//102
f 88//103 90//103 89//103
f 90//104 92//104 91//104
f 92//105 94//105 93//105
f 94//106 96//106 95//106
f 96//107 98//107 97//107
f 98//108 100//108 99//108
f 100//109 102//109 101//109
f 102//110 104//110 103//110
f 80//111 64//111 48//111
f 106//112 44//112 43//112
f 104//113 106//113 105//113
f 73//114 89//114 105//114
f 108//115 110//115 109//115
f 110//116 112//116 111//116
f 112//117 114//117 113//117
f 114//118 116//118 115//118
f 116//119 118//119 117//119
f 118//120 120//120 119//120
f 120//121 122//121 121//121
f 122//122 124//122 123//122
f 124//123 126//123 125//123
f 126//124 128//124 127//124
f 128//125 130//125 129//125
f 130//126 132//126 131//126
f 132//127 134//127 133//127
f 134//128 136//128 135//128
f 136//129 138//129 137//129
f 138//130 140//130 139//130
f 140//131 142//131 141//131
f 142//132 144//132 143//132
f 144//133 146//133 145//133
f 146//134 148//134 147//134
f 148//135 150//135 149//135
f 150//136 152//136 151//136
f 152//137 154//137 153//137
f 154//138 156//138 155//138
f 156//139 158//139 157//139
f 157//140 158//140 160//140
f 160//141 162//141 161//141
f 162//142 164//142 163//142
f 164//143 166//143 165//143
f 166//144 168//144 167//144
f 136//145 128//145 112//145
f 170//146 108//146 107//146
f 168//147 170//147 169//147
f 137//148 153//148 169//148
f 43//81 44//81 45//81
f 45//82 46//82 47//82
f 47//83 48//83 49//83
f 49//84 50//84 51//84
f 51//85 52//85 53//85
f 53//86 54//86 55//86
f 55//87 56//87 57//87
f 57//88 58//88 59//88
f 59//89 60//89 61//89
f 61//90 62//90 63//90
f 63//91 64//91 65//91
f 65//92 66//92 67//92
f 67//93 68//93 69//93
f 71//94 69//94 72//94
f 71//95 72//95 73//95
f 73//96 74//96 75//96
f 75//97 76//97 77//97
f 77//98 78//98 79//98
f 79//99 80//99 81//99
f 81//100 82//100 83//100
f 83//101 84//101 85//101
f 87//102 85//102 88//102
f 87//103 88//103 89//103
f 89//104 90//104 91//104
f 91//105 92//105 93//105
f 93//106 94//106 95//106
f 95//107 96//107 97//107
f 97//108 98//108 99//108
f 99//109 100//109 101//109
f 101//110 102//110 103//110
f 48//111 46//111 104//111
f 44//111 106//111 104//111
f 104//111 102//111 100//111
f 100//111 98//111 96//111
f 96//111 94//111 92//111
f 92//111 90//111 96//111
f 88//111 86//111 84//111
f 84//111 82//111 88//111
f 80//111 78//111 76//111
f 76//111 74//111 80//111
f 72//111 70//111 68//111
f 68//111 66//111 64//111
f 64//111 62//111 56//111
f 60//111 58//111 56//111
f 56//111 54//111 52//111
f 52//111 50//111 48//111
f 46//111 44//111 104//111
f 104//111 100//111 96//111
f 96//111 90//111 88//111
f 88//111 82//111 80//111
f 80//111 74//111 72//111
f 72//111 68//111 80//111
f 62//111 60//111 56//111
f 56//111 52//111 64//111
f 48//111 104//111 96//111
f 96//111 88//111 80//111
f 80//111 68//111 64//111
f 64//111 52//111 48//111
f 48//111 96//111 80//111
f 105//112 106//112 43//112
f 103//113 104//113 105//113
f 105//114 43//114 49//114
f 45//114 47//114 49//114
f 49//114 51//114 57//114
f 53//114 55//114 57//114
f 57//114 59//114 61//114
f 61//114 63//114 65//114
f 65//114 67//114 69//114
f 69//114 71//114 73//114
f 73//114 75//114 77//114
f 77//114 79//114 73//114
f 81//114 83//114 85//114
f 85//114 87//114 81//114
f 89//114 91//114 93//114
f 93//114 95//114 89//114
f 97//114 99//114 101//114
f 101//114 103//114 97//114
f 43//114 45//114 49//114
f 51//114 53//114 57//114
f 57//114 61//114 65//114
f 65//114 69//114 73//114
f 73//114 79//114 81//114
f 81//114 87//114 89//114
f 89//114 95//114 97//114
f 97//114 103//114 105//114
f 105//114 49//114 57//114
f 57//114 65//114 73//114
f 73//114 81//114 89//114
f 89//114 97//114 105//114
f 105//114 57//114 73//114
f 107//115 108//115 109//115
f 109//116 110//116 111//116
f 111//117 112//117 113//117
f 113//118 114//118 115//118
f 115//119 116//119 117//119
f 117//120 118//120 119//120
f 119//121 120//121 121//121
f 121//122 122//122 123//122
f 123//123 124//123 125//123
f 125//124 126//124 127//124
f 127//125 128//125 129//125
f 129//126 130//126 131//126
f 131//127 132//127 133//127
f 133//128 134//128 135//128
f 135//129 136//129 137//129
f 137//130 138//130 139//130
f 139//131 140//131 141//131
f 141//132 142//132 143//132
f 143//133 144//133 145//133
f 145//134 146//134 147//134
f 147//135 148//135 149//135
f 149//136 150//136 151//136
f 151//137 152//137 153//137
f 153//138 154//138 155//138
f 155//139 156//139 157//139
f 159//140 157//140 160//140
f 159//141 160//141 161//141
f 161//142 162//142 163//142
f 163//143 164//143 165//143
f 165//144 166//144 167//144
f 112//145 110//145 168//145
f 108//145 170//145 168//145
f 168//145 166//145 164//145
f 164//145 162//145 160//145
f 160//145 158//145 156//145
f 156//145 154//145 160//145
f 152//145 150//145 144//145
f 148//145 146//145 144//145
f 144//145 142//145 136//145
f 140//145 138//145 136//145
f 136//145 134//145 132//145
f 132//145 130//145 128//145
f 128//145 126//145 124//145
f 124//145 122//145 120//145
f 120//145 118//145 116//145
f 116//145 114//145 112//145
f 110//145 108//145 168//145
f 168//145 164//145 112//145
f 160//145 154//145 152//145
f 150//145 148//145 144//145
f 142//145 140//145 136//145
f 136//145 132//145 128//145
f 128//145 124//145 120//145
f 120//145 116//145 128//145
f 112//145 164//145 160//145
f 160//145 152//145 144//145
f 144//145 136//145 112//145
f 128//145 116//145 112//145
f 112//145 160//145 144//145
f 169//146 170//146 107//146
f 167//147 168//147 169//147
f 169//148 107//148 109//148
f 109//148 111//148 113//148
f 113//148 115//148 121//148
f 117//148 119//148 121//148
f 121//148 123//148 125//148
f 125//148 127//148 129//148
f 129//148 131//148 137//148
f 133//148 135//148 137//148
f 137//148 139//148 141//148
f 141//148 143//148 145//148
f 145//148 147//148 149//148
f 149//148 151//148 153//148
f 153//148 155//148 157//148
f 157//148 159//148 161//148
f 161//148 163//148 165//148
f 165//148 167//148 169//148
f 169//148 109//148 113//148
f 115//148 117//148 121//148
f 121//148 125//148 129//148
f 131//148 133//148 137//148
f 137//148 141//148 145//148
f 145//148 149//148 137//148
f 153//148 157//148 169//148
f 161//148 165//148 169//148
f 169//148 113//148 137//148
f 121//148 129//148 137//148
f 137//148 149//148 153//148
f 157//148 161//148 169//148
f 113//148 121//148 137//148
