# Made in Blockbench 4.9.4
mtllib pyramid.mtl

o pyramid
v 0 1 0
v 0.5 0 0.5
v 0.5 0 -0.5
v -0.5 0 0.5
v -0.5 0 -0.5
vt 0.6875 0.25
vt 0.6875 0
vt 0.4375 0
vt 0.4375 0.25
vt 0.3780786804403148 0.5791233118566227
vt 0.6062963195596852 0.6811855928167345
vt 0.6062963195596851 0.375
vt 0.003078680440314799 0.2041233118566227
vt 0.23129631955968522 0.3061855928167345
vt 0.23129631955968505 0
vt 0.19057868044031478 0.3916233118566227
vt 0.4187963195596852 0.4936855928167345
vt 0.41879631955968505 0.1875
vt 0.003078680440314799 0.6416233118566227
vt 0.23129631955968522 0.7436855928167345
vt 0.23129631955968505 0.4375
vn 0 -1 0
vn 0.8944271909999161 0.44721359549995804 0
vn 0 0.44721359549995804 0.8944271909999161
vn 0 0.44721359549995804 -0.8944271909999161
vn -0.8944271909999161 0.44721359549995804 0
usemtl m_d61f9499-1bf7-4e99-8524-c1ff74261694
f 3/1/1 2/2/1 4/3/1 5/4/1
f 2/5/2 3/6/2 1/7/2
f 4/8/3 2/9/3 1/10/3
f 3/11/4 5/12/4 1/13/4
f 5/14/5 4/15/5 1/16/5