# This file uses centimeters as units for non-parametric coordinates.

mtllib fancy_fence.mtl
g default
v 0.571750 0.000000 0.326800
v 0.428250 0.000000 0.326800
v 0.673200 0.000000 0.571750
v 0.673200 0.000000 0.428250
v 0.428250 0.000000 0.673200
v 0.571750 0.000000 0.673200
v 0.326800 0.000000 0.428250
v 0.326800 0.000000 0.571750
v 0.571750 1.000000 0.326800
v 0.428250 1.000000 0.326800
v 0.673200 1.000000 0.571750
v 0.673200 1.000000 0.428250
v 0.428250 1.000000 0.673200
v 0.571750 1.000000 0.673200
v 0.326800 1.000000 0.428250
v 0.326800 1.000000 0.571750
v 0.428250 0.000000 0.326800
v 0.428250 1.000000 0.326800
v 0.326800 0.000000 0.428250
v 0.326800 1.000000 0.428250
v 0.326800 0.000000 0.428250
v 0.326800 1.000000 0.428250
v 0.326800 0.000000 0.571750
v 0.326800 1.000000 0.571750
v 0.326800 0.000000 0.571750
v 0.326800 1.000000 0.571750
v 0.428250 0.000000 0.673200
v 0.428250 1.000000 0.673200
v 0.428250 0.000000 0.673200
v 0.428250 1.000000 0.673200
v 0.571750 0.000000 0.673200
v 0.571750 1.000000 0.673200
v 0.571750 0.000000 0.673200
v 0.571750 1.000000 0.673200
v 0.673200 0.000000 0.571750
v 0.673200 1.000000 0.571750
v 0.673200 0.000000 0.571750
v 0.673200 1.000000 0.571750
v 0.673200 0.000000 0.428250
v 0.673200 1.000000 0.428250
v 0.673200 0.000000 0.428250
v 0.673200 1.000000 0.428250
v 0.571750 0.000000 0.326800
v 0.571750 1.000000 0.326800
v 0.571750 0.000000 0.326800
v 0.571750 1.000000 0.326800
v 0.428250 0.000000 0.326800
v 0.428250 1.000000 0.326800
vt 0.880700 0.189300
vt 0.611500 0.078420
vt 0.690300 0.267700
vt 0.611500 0.189300
vt 0.801900 0.000000
vt 0.690300 0.000000
vt 0.880700 0.078420
vt 0.801900 0.267700
vt 0.492200 0.189300
vt 0.301900 0.267700
vt 0.223000 0.078420
vt 0.223000 0.189300
vt 0.413400 0.000000
vt 0.301900 0.000000
vt 0.492200 0.078420
vt 0.413400 0.267700
vt 0.223000 0.826700
vt 0.998500 0.826700
vt 0.998500 0.936700
vt 0.223000 0.936700
vt 0.223000 0.492200
vt 0.998500 0.492200
vt 0.998500 0.602200
vt 0.223000 0.602200
vt 0.223000 0.715200
vt 0.998500 0.715200
vt 0.998500 0.825200
vt 0.223000 0.825200
vt 0.111500 0.777000
vt 0.111500 0.000000
vt 0.221500 0.000000
vt 0.221500 0.777000
vt 0.223000 0.380700
vt 0.998500 0.380700
vt 0.998500 0.490700
vt 0.223000 0.490700
vt 0.000000 0.777000
vt 0.000000 0.000000
vt 0.110000 0.000000
vt 0.110000 0.777000
vt 0.223000 0.269200
vt 0.998500 0.269200
vt 0.998500 0.379200
vt 0.223000 0.379200
vt 0.223000 0.603700
vt 0.998500 0.603700
vt 0.998500 0.713700
vt 0.223000 0.713700
vn 0.000000 -1.000000 0.000000
vn 0.000000 -1.000000 0.000000
vn 0.000000 -1.000000 0.000000
vn 0.000000 -1.000000 0.000000
vn 0.000000 -1.000000 0.000000
vn 0.000000 -1.000000 0.000000
vn 0.000000 -1.000000 0.000000
vn 0.000000 -1.000000 0.000000
vn 0.000000 -1.000000 0.000000
vn 0.000000 -1.000000 0.000000
vn 0.000000 -1.000000 0.000000
vn 0.000000 -1.000000 0.000000
vn 0.000000 -1.000000 0.000000
vn 0.000000 -1.000000 0.000000
vn 0.000000 -1.000000 0.000000
vn 0.000000 -1.000000 0.000000
vn 0.000000 -1.000000 0.000000
vn 0.000000 -1.000000 0.000000
vn 0.000000 1.000000 0.000000
vn 0.000000 1.000000 0.000000
vn 0.000000 1.000000 0.000000
vn 0.000000 1.000000 0.000000
vn 0.000000 1.000000 0.000000
vn 0.000000 1.000000 0.000000
vn 0.000000 1.000000 0.000000
vn 0.000000 1.000000 0.000000
vn 0.000000 1.000000 0.000000
vn 0.000000 1.000000 0.000000
vn 0.000000 1.000000 0.000000
vn 0.000000 1.000000 0.000000
vn 0.000000 1.000000 0.000000
vn 0.000000 1.000000 0.000000
vn 0.000000 1.000000 0.000000
vn 0.000000 1.000000 0.000000
vn 0.000000 1.000000 0.000000
vn 0.000000 1.000000 0.000000
vn -0.707107 0.000000 -0.707107
vn -0.707107 0.000000 -0.707107
vn -0.707107 0.000000 -0.707107
vn -0.707107 0.000000 -0.707107
vn -1.000000 0.000000 0.000000
vn -1.000000 0.000000 0.000000
vn -1.000000 0.000000 0.000000
vn -1.000000 0.000000 0.000000
vn -0.707107 0.000000 0.707107
vn -0.707107 0.000000 0.707107
vn -0.707107 0.000000 0.707107
vn -0.707107 0.000000 0.707107
vn 0.000000 0.000000 1.000000
vn 0.000000 0.000000 1.000000
vn 0.000000 0.000000 1.000000
vn 0.000000 0.000000 1.000000
vn 0.707107 0.000000 0.707107
vn 0.707107 0.000000 0.707107
vn 0.707107 0.000000 0.707107
vn 0.707107 0.000000 0.707107
vn 1.000000 0.000000 0.000000
vn 1.000000 0.000000 0.000000
vn 1.000000 0.000000 0.000000
vn 1.000000 0.000000 0.000000
vn 0.707107 0.000000 -0.707107
vn 0.707107 0.000000 -0.707107
vn 0.707107 0.000000 -0.707107
vn 0.707107 0.000000 -0.707107
vn 0.000000 0.000000 -1.000000
vn 0.000000 0.000000 -1.000000
vn 0.000000 0.000000 -1.000000
vn 0.000000 0.000000 -1.000000
s off
g fancy_fence:post group
usemtl fancy_fence:Default
f 4/1/1 8/2/2 2/3/3
f 8/2/4 7/4/5 2/3/6
f 6/5/7 5/6/8 8/2/9
f 4/1/10 3/7/11 6/5/12
f 4/1/13 2/3/14 1/8/15
f 6/5/16 8/2/17 4/1/18
f 12/9/19 10/10/20 16/11/21
f 16/11/22 10/10/23 15/12/24
f 14/13/25 16/11/26 13/14/27
f 12/9/28 14/13/29 11/15/30
f 12/9/31 9/16/32 10/10/33
f 14/13/34 12/9/35 16/11/36
f 18/17/37 17/18/38 19/19/39 20/20/40
f 22/21/41 21/22/42 23/23/43 24/24/44
f 26/25/45 25/26/46 27/27/47 28/28/48
f 30/29/49 29/30/50 31/31/51 32/32/52
f 34/33/53 33/34/54 35/35/55 36/36/56
f 38/37/57 37/38/58 39/39/59 40/40/60
f 42/41/61 41/42/62 43/43/63 44/44/64
f 46/45/65 45/46/66 47/47/67 48/48/68
g default
v 0.562500 0.812500 0.326800
v 0.562500 0.937500 0.326800
v 0.562500 0.812500 0.000000
v 0.562500 0.937500 0.000000
v 0.562500 0.812500 0.000000
v 0.562500 0.937500 0.000000
v 0.437500 0.812500 0.000000
v 0.437500 0.937500 0.000000
v 0.437500 0.812500 0.000000
v 0.437500 0.937500 0.000000
v 0.437500 0.812500 0.326800
v 0.437500 0.937500 0.326800
v 0.562500 0.812500 0.326800
v 0.437500 0.812500 0.326800
v 0.562500 0.812500 0.000000
v 0.437500 0.812500 0.000000
v 0.562500 0.937500 0.326800
v 0.437500 0.937500 0.326800
v 0.562500 0.937500 0.000000
v 0.437500 0.937500 0.000000
v 0.562500 0.812500 0.326800
v 0.562500 0.937500 0.326800
v 0.437500 0.812500 0.326800
v 0.437500 0.937500 0.326800
v 0.562500 0.625000 0.326800
v 0.562500 0.750000 0.326800
v 0.562500 0.625000 0.000000
v 0.562500 0.750000 0.000000
v 0.562500 0.625000 0.000000
v 0.562500 0.750000 0.000000
v 0.437500 0.625000 0.000000
v 0.437500 0.750000 0.000000
v 0.437500 0.625000 0.000000
v 0.437500 0.750000 0.000000
v 0.437500 0.625000 0.326800
v 0.437500 0.750000 0.326800
v 0.562500 0.625000 0.326800
v 0.437500 0.625000 0.326800
v 0.562500 0.625000 0.000000
v 0.437500 0.625000 0.000000
v 0.562500 0.750000 0.326800
v 0.437500 0.750000 0.326800
v 0.562500 0.750000 0.000000
v 0.437500 0.750000 0.000000
v 0.562500 0.625000 0.326800
v 0.562500 0.750000 0.326800
v 0.437500 0.625000 0.326800
v 0.437500 0.750000 0.326800
vt 0.250000 0.250000
vt 0.498500 0.250000
vt 0.498500 0.902100
vt 0.250000 0.902100
vt 0.250000 0.248500
vt 0.250000 0.000000
vt 0.498500 0.000000
vt 0.498500 0.248500
vt 0.000000 0.250000
vt 0.248500 0.250000
vt 0.248500 0.902100
vt 0.000000 0.902100
vt 0.750000 0.000000
vt 0.750000 0.653500
vt 0.998500 0.653500
vt 0.998500 0.000000
vt 0.500000 0.000000
vt 0.748500 0.000000
vt 0.748500 0.653500
vt 0.500000 0.653500
vt 0.000000 0.248500
vt 0.248500 0.248500
vt 0.248500 0.000000
vt 0.000000 0.000000
vt 0.250000 0.250000
vt 0.498500 0.250000
vt 0.498500 0.902100
vt 0.250000 0.902100
vt 0.250000 0.248500
vt 0.250000 0.000000
vt 0.498500 0.000000
vt 0.498500 0.248500
vt 0.000000 0.250000
vt 0.248500 0.250000
vt 0.248500 0.902100
vt 0.000000 0.902100
vt 0.750000 0.000000
vt 0.750000 0.653500
vt 0.998500 0.653500
vt 0.998500 0.000000
vt 0.500000 0.000000
vt 0.748500 0.000000
vt 0.748500 0.653500
vt 0.500000 0.653500
vt 0.000000 0.248500
vt 0.248500 0.248500
vt 0.248500 0.000000
vt 0.000000 0.000000
vn 1.000000 0.000000 0.000000
vn 1.000000 0.000000 0.000000
vn 1.000000 0.000000 0.000000
vn 1.000000 0.000000 0.000000
vn 0.000000 0.000000 -1.000000
vn 0.000000 0.000000 -1.000000
vn 0.000000 0.000000 -1.000000
vn 0.000000 0.000000 -1.000000
vn -1.000000 0.000000 0.000000
vn -1.000000 0.000000 0.000000
vn -1.000000 0.000000 0.000000
vn -1.000000 0.000000 0.000000
vn 0.000000 -1.000000 0.000000
vn 0.000000 -1.000000 0.000000
vn 0.000000 -1.000000 0.000000
vn 0.000000 -1.000000 0.000000
vn 0.000000 1.000000 0.000000
vn 0.000000 1.000000 0.000000
vn 0.000000 1.000000 0.000000
vn 0.000000 1.000000 0.000000
vn 0.000000 0.000000 1.000000
vn 0.000000 0.000000 1.000000
vn 0.000000 0.000000 1.000000
vn 0.000000 0.000000 1.000000
vn 1.000000 0.000000 0.000000
vn 1.000000 0.000000 0.000000
vn 1.000000 0.000000 0.000000
vn 1.000000 0.000000 0.000000
vn 0.000000 0.000000 -1.000000
vn 0.000000 0.000000 -1.000000
vn 0.000000 0.000000 -1.000000
vn 0.000000 0.000000 -1.000000
vn -1.000000 0.000000 0.000000
vn -1.000000 0.000000 0.000000
vn -1.000000 0.000000 0.000000
vn -1.000000 0.000000 0.000000
vn 0.000000 -1.000000 0.000000
vn 0.000000 -1.000000 0.000000
vn 0.000000 -1.000000 0.000000
vn 0.000000 -1.000000 0.000000
vn 0.000000 1.000000 0.000000
vn 0.000000 1.000000 0.000000
vn 0.000000 1.000000 0.000000
vn 0.000000 1.000000 0.000000
vn 0.000000 0.000000 1.000000
vn 0.000000 0.000000 1.000000
vn 0.000000 0.000000 1.000000
vn 0.000000 0.000000 1.000000
s off
g group fancy_fence:north
usemtl fancy_fence:Default
f 50/49/69 49/50/70 51/51/71 52/52/72
f 54/53/73 53/54/74 55/55/75 56/56/76
f 58/57/77 57/58/78 59/59/79 60/60/80
f 62/61/81 64/62/82 63/63/83 61/64/84
f 66/65/85 65/66/86 67/67/87 68/68/88
f 70/69/89 72/70/90 71/71/91 69/72/92
f 74/73/93 73/74/94 75/75/95 76/76/96
f 78/77/97 77/78/98 79/79/99 80/80/100
f 82/81/101 81/82/102 83/83/103 84/84/104
f 86/85/105 88/86/106 87/87/107 85/88/108
f 90/89/109 89/90/110 91/91/111 92/92/112
f 94/93/113 96/94/114 95/95/115 93/96/116
g default
v 0.326800 0.812500 0.437500
v 0.326800 0.937500 0.437500
v 0.000000 0.812500 0.437500
v 0.000000 0.937500 0.437500
v 0.000000 0.812500 0.437500
v 0.000000 0.937500 0.437500
v 0.000000 0.812500 0.562500
v 0.000000 0.937500 0.562500
v 0.000000 0.812500 0.562500
v 0.000000 0.937500 0.562500
v 0.326800 0.812500 0.562500
v 0.326800 0.937500 0.562500
v 0.326800 0.812500 0.437500
v 0.326800 0.812500 0.562500
v 0.000000 0.812500 0.437500
v 0.000000 0.812500 0.562500
v 0.326800 0.937500 0.437500
v 0.326800 0.937500 0.562500
v 0.000000 0.937500 0.437500
v 0.000000 0.937500 0.562500
v 0.326800 0.812500 0.437500
v 0.326800 0.937500 0.437500
v 0.326800 0.812500 0.562500
v 0.326800 0.937500 0.562500
v 0.326800 0.625000 0.437500
v 0.326800 0.750000 0.437500
v 0.000000 0.625000 0.437500
v 0.000000 0.750000 0.437500
v 0.000000 0.625000 0.437500
v 0.000000 0.750000 0.437500
v 0.000000 0.625000 0.562500
v 0.000000 0.750000 0.562500
v 0.000000 0.625000 0.562500
v 0.000000 0.750000 0.562500
v 0.326800 0.625000 0.562500
v 0.326800 0.750000 0.562500
v 0.326800 0.625000 0.437500
v 0.326800 0.625000 0.562500
v 0.000000 0.625000 0.437500
v 0.000000 0.625000 0.562500
v 0.326800 0.750000 0.437500
v 0.326800 0.750000 0.562500
v 0.000000 0.750000 0.437500
v 0.000000 0.750000 0.562500
v 0.326800 0.625000 0.437500
v 0.326800 0.750000 0.437500
v 0.326800 0.625000 0.562500
v 0.326800 0.750000 0.562500
vt 0.250000 0.250000
vt 0.498500 0.250000
vt 0.498500 0.902100
vt 0.250000 0.902100
vt 0.250000 0.248500
vt 0.250000 0.000000
vt 0.498500 0.000000
vt 0.498500 0.248500
vt 0.000000 0.250000
vt 0.248500 0.250000
vt 0.248500 0.902100
vt 0.000000 0.902100
vt 0.750000 0.000000
vt 0.750000 0.653500
vt 0.998500 0.653500
vt 0.998500 0.000000
vt 0.500000 0.000000
vt 0.748500 0.000000
vt 0.748500 0.653500
vt 0.500000 0.653500
vt 0.000000 0.248500
vt 0.248500 0.248500
vt 0.248500 0.000000
vt 0.000000 0.000000
vt 0.250000 0.250000
vt 0.498500 0.250000
vt 0.498500 0.902100
vt 0.250000 0.902100
vt 0.250000 0.248500
vt 0.250000 0.000000
vt 0.498500 0.000000
vt 0.498500 0.248500
vt 0.000000 0.250000
vt 0.248500 0.250000
vt 0.248500 0.902100
vt 0.000000 0.902100
vt 0.750000 0.000000
vt 0.750000 0.653500
vt 0.998500 0.653500
vt 0.998500 0.000000
vt 0.500000 0.000000
vt 0.748500 0.000000
vt 0.748500 0.653500
vt 0.500000 0.653500
vt 0.000000 0.248500
vt 0.248500 0.248500
vt 0.248500 0.000000
vt 0.000000 0.000000
vn 0.000000 0.000000 -1.000000
vn 0.000000 0.000000 -1.000000
vn 0.000000 0.000000 -1.000000
vn 0.000000 0.000000 -1.000000
vn -1.000000 0.000000 0.000000
vn -1.000000 0.000000 0.000000
vn -1.000000 0.000000 0.000000
vn -1.000000 0.000000 0.000000
vn 0.000000 0.000000 1.000000
vn 0.000000 0.000000 1.000000
vn 0.000000 0.000000 1.000000
vn 0.000000 0.000000 1.000000
vn 0.000000 -1.000000 0.000000
vn 0.000000 -1.000000 0.000000
vn 0.000000 -1.000000 0.000000
vn 0.000000 -1.000000 0.000000
vn 0.000000 1.000000 0.000000
vn 0.000000 1.000000 0.000000
vn 0.000000 1.000000 0.000000
vn 0.000000 1.000000 0.000000
vn 1.000000 0.000000 0.000000
vn 1.000000 0.000000 0.000000
vn 1.000000 0.000000 0.000000
vn 1.000000 0.000000 0.000000
vn 0.000000 0.000000 -1.000000
vn 0.000000 0.000000 -1.000000
vn 0.000000 0.000000 -1.000000
vn 0.000000 0.000000 -1.000000
vn -1.000000 0.000000 0.000000
vn -1.000000 0.000000 0.000000
vn -1.000000 0.000000 0.000000
vn -1.000000 0.000000 0.000000
vn 0.000000 0.000000 1.000000
vn 0.000000 0.000000 1.000000
vn 0.000000 0.000000 1.000000
vn 0.000000 0.000000 1.000000
vn 0.000000 -1.000000 0.000000
vn 0.000000 -1.000000 0.000000
vn 0.000000 -1.000000 0.000000
vn 0.000000 -1.000000 0.000000
vn 0.000000 1.000000 0.000000
vn 0.000000 1.000000 0.000000
vn 0.000000 1.000000 0.000000
vn 0.000000 1.000000 0.000000
vn 1.000000 0.000000 0.000000
vn 1.000000 0.000000 0.000000
vn 1.000000 0.000000 0.000000
vn 1.000000 0.000000 0.000000
s off
g group fancy_fence:west
usemtl fancy_fence:Default
f 98/97/117 97/98/118 99/99/119 100/100/120
f 102/101/121 101/102/122 103/103/123 104/104/124
f 106/105/125 105/106/126 107/107/127 108/108/128
f 110/109/129 112/110/130 111/111/131 109/112/132
f 114/113/133 113/114/134 115/115/135 116/116/136
f 118/117/137 120/118/138 119/119/139 117/120/140
f 122/121/141 121/122/142 123/123/143 124/124/144
f 126/125/145 125/126/146 127/127/147 128/128/148
f 130/129/149 129/130/150 131/131/151 132/132/152
f 134/133/153 136/134/154 135/135/155 133/136/156
f 138/137/157 137/138/158 139/139/159 140/140/160
f 142/141/161 144/142/162 143/143/163 141/144/164
g default
v 0.437500 0.812500 0.673200
v 0.437500 0.937500 0.673200
v 0.437500 0.812500 1.000000
v 0.437500 0.937500 1.000000
v 0.437500 0.812500 1.000000
v 0.437500 0.937500 1.000000
v 0.562500 0.812500 1.000000
v 0.562500 0.937500 1.000000
v 0.562500 0.812500 1.000000
v 0.562500 0.937500 1.000000
v 0.562500 0.812500 0.673200
v 0.562500 0.937500 0.673200
v 0.437500 0.812500 0.673200
v 0.562500 0.812500 0.673200
v 0.437500 0.812500 1.000000
v 0.562500 0.812500 1.000000
v 0.437500 0.937500 0.673200
v 0.562500 0.937500 0.673200
v 0.437500 0.937500 1.000000
v 0.562500 0.937500 1.000000
v 0.437500 0.812500 0.673200
v 0.437500 0.937500 0.673200
v 0.562500 0.812500 0.673200
v 0.562500 0.937500 0.673200
v 0.437500 0.625000 0.673200
v 0.437500 0.750000 0.673200
v 0.437500 0.625000 1.000000
v 0.437500 0.750000 1.000000
v 0.437500 0.625000 1.000000
v 0.437500 0.750000 1.000000
v 0.562500 0.625000 1.000000
v 0.562500 0.750000 1.000000
v 0.562500 0.625000 1.000000
v 0.562500 0.750000 1.000000
v 0.562500 0.625000 0.673200
v 0.562500 0.750000 0.673200
v 0.437500 0.625000 0.673200
v 0.562500 0.625000 0.673200
v 0.437500 0.625000 1.000000
v 0.562500 0.625000 1.000000
v 0.437500 0.750000 0.673200
v 0.562500 0.750000 0.673200
v 0.437500 0.750000 1.000000
v 0.562500 0.750000 1.000000
v 0.437500 0.625000 0.673200
v 0.437500 0.750000 0.673200
v 0.562500 0.625000 0.673200
v 0.562500 0.750000 0.673200
vt 0.250000 0.250000
vt 0.498500 0.250000
vt 0.498500 0.902100
vt 0.250000 0.902100
vt 0.250000 0.248500
vt 0.250000 0.000000
vt 0.498500 0.000000
vt 0.498500 0.248500
vt 0.000000 0.250000
vt 0.248500 0.250000
vt 0.248500 0.902100
vt 0.000000 0.902100
vt 0.750000 0.000000
vt 0.750000 0.653500
vt 0.998500 0.653500
vt 0.998500 0.000000
vt 0.500000 0.000000
vt 0.748500 0.000000
vt 0.748500 0.653500
vt 0.500000 0.653500
vt 0.000000 0.248500
vt 0.248500 0.248500
vt 0.248500 0.000000
vt 0.000000 0.000000
vt 0.250000 0.250000
vt 0.498500 0.250000
vt 0.498500 0.902100
vt 0.250000 0.902100
vt 0.250000 0.248500
vt 0.250000 0.000000
vt 0.498500 0.000000
vt 0.498500 0.248500
vt 0.000000 0.250000
vt 0.248500 0.250000
vt 0.248500 0.902100
vt 0.000000 0.902100
vt 0.750000 0.000000
vt 0.750000 0.653500
vt 0.998500 0.653500
vt 0.998500 0.000000
vt 0.500000 0.000000
vt 0.748500 0.000000
vt 0.748500 0.653500
vt 0.500000 0.653500
vt 0.000000 0.248500
vt 0.248500 0.248500
vt 0.248500 0.000000
vt 0.000000 0.000000
vn -1.000000 0.000000 0.000000
vn -1.000000 0.000000 0.000000
vn -1.000000 0.000000 0.000000
vn -1.000000 0.000000 0.000000
vn 0.000000 0.000000 1.000000
vn 0.000000 0.000000 1.000000
vn 0.000000 0.000000 1.000000
vn 0.000000 0.000000 1.000000
vn 1.000000 0.000000 0.000000
vn 1.000000 0.000000 0.000000
vn 1.000000 0.000000 0.000000
vn 1.000000 0.000000 0.000000
vn 0.000000 -1.000000 0.000000
vn 0.000000 -1.000000 0.000000
vn 0.000000 -1.000000 0.000000
vn 0.000000 -1.000000 0.000000
vn 0.000000 1.000000 0.000000
vn 0.000000 1.000000 0.000000
vn 0.000000 1.000000 0.000000
vn 0.000000 1.000000 0.000000
vn 0.000000 0.000000 -1.000000
vn 0.000000 0.000000 -1.000000
vn 0.000000 0.000000 -1.000000
vn 0.000000 0.000000 -1.000000
vn -1.000000 0.000000 0.000000
vn -1.000000 0.000000 0.000000
vn -1.000000 0.000000 0.000000
vn -1.000000 0.000000 0.000000
vn 0.000000 0.000000 1.000000
vn 0.000000 0.000000 1.000000
vn 0.000000 0.000000 1.000000
vn 0.000000 0.000000 1.000000
vn 1.000000 0.000000 0.000000
vn 1.000000 0.000000 0.000000
vn 1.000000 0.000000 0.000000
vn 1.000000 0.000000 0.000000
vn 0.000000 -1.000000 0.000000
vn 0.000000 -1.000000 0.000000
vn 0.000000 -1.000000 0.000000
vn 0.000000 -1.000000 0.000000
vn 0.000000 1.000000 0.000000
vn 0.000000 1.000000 0.000000
vn 0.000000 1.000000 0.000000
vn 0.000000 1.000000 0.000000
vn 0.000000 0.000000 -1.000000
vn 0.000000 0.000000 -1.000000
vn 0.000000 0.000000 -1.000000
vn 0.000000 0.000000 -1.000000
s off
g group fancy_fence:south
usemtl fancy_fence:Default
f 146/145/165 145/146/166 147/147/167 148/148/168
f 150/149/169 149/150/170 151/151/171 152/152/172
f 154/153/173 153/154/174 155/155/175 156/156/176
f 158/157/177 160/158/178 159/159/179 157/160/180
f 162/161/181 161/162/182 163/163/183 164/164/184
f 166/165/185 168/166/186 167/167/187 165/168/188
f 170/169/189 169/170/190 171/171/191 172/172/192
f 174/173/193 173/174/194 175/175/195 176/176/196
f 178/177/197 177/178/198 179/179/199 180/180/200
f 182/181/201 184/182/202 183/183/203 181/184/204
f 186/185/205 185/186/206 187/187/207 188/188/208
f 190/189/209 192/190/210 191/191/211 189/192/212
g default
v 0.673200 0.812500 0.562500
v 0.673200 0.937500 0.562500
v 1.000000 0.812500 0.562500
v 1.000000 0.937500 0.562500
v 1.000000 0.812500 0.562500
v 1.000000 0.937500 0.562500
v 1.000000 0.812500 0.437500
v 1.000000 0.937500 0.437500
v 1.000000 0.812500 0.437500
v 1.000000 0.937500 0.437500
v 0.673200 0.812500 0.437500
v 0.673200 0.937500 0.437500
v 0.673200 0.812500 0.562500
v 0.673200 0.812500 0.437500
v 1.000000 0.812500 0.562500
v 1.000000 0.812500 0.437500
v 0.673200 0.937500 0.562500
v 0.673200 0.937500 0.437500
v 1.000000 0.937500 0.562500
v 1.000000 0.937500 0.437500
v 0.673200 0.812500 0.562500
v 0.673200 0.937500 0.562500
v 0.673200 0.812500 0.437500
v 0.673200 0.937500 0.437500
v 0.673200 0.625000 0.562500
v 0.673200 0.750000 0.562500
v 1.000000 0.625000 0.562500
v 1.000000 0.750000 0.562500
v 1.000000 0.625000 0.562500
v 1.000000 0.750000 0.562500
v 1.000000 0.625000 0.437500
v 1.000000 0.750000 0.437500
v 1.000000 0.625000 0.437500
v 1.000000 0.750000 0.437500
v 0.673200 0.625000 0.437500
v 0.673200 0.750000 0.437500
v 0.673200 0.625000 0.562500
v 0.673200 0.625000 0.437500
v 1.000000 0.625000 0.562500
v 1.000000 0.625000 0.437500
v 0.673200 0.750000 0.562500
v 0.673200 0.750000 0.437500
v 1.000000 0.750000 0.562500
v 1.000000 0.750000 0.437500
v 0.673200 0.625000 0.562500
v 0.673200 0.750000 0.562500
v 0.673200 0.625000 0.437500
v 0.673200 0.750000 0.437500
vt 0.250000 0.250000
vt 0.498500 0.250000
vt 0.498500 0.902100
vt 0.250000 0.902100
vt 0.250000 0.248500
vt 0.250000 0.000000
vt 0.498500 0.000000
vt 0.498500 0.248500
vt 0.000000 0.250000
vt 0.248500 0.250000
vt 0.248500 0.902100
vt 0.000000 0.902100
vt 0.750000 0.000000
vt 0.750000 0.653500
vt 0.998500 0.653500
vt 0.998500 0.000000
vt 0.500000 0.000000
vt 0.748500 0.000000
vt 0.748500 0.653500
vt 0.500000 0.653500
vt 0.000000 0.248500
vt 0.248500 0.248500
vt 0.248500 0.000000
vt 0.000000 0.000000
vt 0.250000 0.250000
vt 0.498500 0.250000
vt 0.498500 0.902100
vt 0.250000 0.902100
vt 0.250000 0.248500
vt 0.250000 0.000000
vt 0.498500 0.000000
vt 0.498500 0.248500
vt 0.000000 0.250000
vt 0.248500 0.250000
vt 0.248500 0.902100
vt 0.000000 0.902100
vt 0.750000 0.000000
vt 0.750000 0.653500
vt 0.998500 0.653500
vt 0.998500 0.000000
vt 0.500000 0.000000
vt 0.748500 0.000000
vt 0.748500 0.653500
vt 0.500000 0.653500
vt 0.000000 0.248500
vt 0.248500 0.248500
vt 0.248500 0.000000
vt 0.000000 0.000000
vn 0.000000 0.000000 1.000000
vn 0.000000 0.000000 1.000000
vn 0.000000 0.000000 1.000000
vn 0.000000 0.000000 1.000000
vn 1.000000 0.000000 0.000000
vn 1.000000 0.000000 0.000000
vn 1.000000 0.000000 0.000000
vn 1.000000 0.000000 0.000000
vn 0.000000 0.000000 -1.000000
vn 0.000000 0.000000 -1.000000
vn 0.000000 0.000000 -1.000000
vn 0.000000 0.000000 -1.000000
vn 0.000000 -1.000000 0.000000
vn 0.000000 -1.000000 0.000000
vn 0.000000 -1.000000 0.000000
vn 0.000000 -1.000000 0.000000
vn 0.000000 1.000000 0.000000
vn 0.000000 1.000000 0.000000
vn 0.000000 1.000000 0.000000
vn 0.000000 1.000000 0.000000
vn -1.000000 0.000000 0.000000
vn -1.000000 0.000000 0.000000
vn -1.000000 0.000000 0.000000
vn -1.000000 0.000000 0.000000
vn 0.000000 0.000000 1.000000
vn 0.000000 0.000000 1.000000
vn 0.000000 0.000000 1.000000
vn 0.000000 0.000000 1.000000
vn 1.000000 0.000000 0.000000
vn 1.000000 0.000000 0.000000
vn 1.000000 0.000000 0.000000
vn 1.000000 0.000000 0.000000
vn 0.000000 0.000000 -1.000000
vn 0.000000 0.000000 -1.000000
vn 0.000000 0.000000 -1.000000
vn 0.000000 0.000000 -1.000000
vn 0.000000 -1.000000 0.000000
vn 0.000000 -1.000000 0.000000
vn 0.000000 -1.000000 0.000000
vn 0.000000 -1.000000 0.000000
vn 0.000000 1.000000 0.000000
vn 0.000000 1.000000 0.000000
vn 0.000000 1.000000 0.000000
vn 0.000000 1.000000 0.000000
vn -1.000000 0.000000 0.000000
vn -1.000000 0.000000 0.000000
vn -1.000000 0.000000 0.000000
vn -1.000000 0.000000 0.000000
s off
g group fancy_fence:east
usemtl fancy_fence:Default
f 194/193/213 193/194/214 195/195/215 196/196/216
f 198/197/217 197/198/218 199/199/219 200/200/220
f 202/201/221 201/202/222 203/203/223 204/204/224
f 206/205/225 208/206/226 207/207/227 205/208/228
f 210/209/229 209/210/230 211/211/231 212/212/232
f 214/213/233 216/214/234 215/215/235 213/216/236
f 218/217/237 217/218/238 219/219/239 220/220/240
f 222/221/241 221/222/242 223/223/243 224/224/244
f 226/225/245 225/226/246 227/227/247 228/228/248
f 230/229/249 232/230/250 231/231/251 229/232/252
f 234/233/253 233/234/254 235/235/255 236/236/256
f 238/237/257 240/238/258 239/239/259 237/240/260
