<svg xmlns="http://www.w3.org/2000/svg" xml:space="preserve" viewBox="164.072 372.466 294.41 46.56">
  <g fill="#DFA86A">
    <path d="M266.16 417.99h10.96v-16.94h17.97v-10.27h-17.97v-7.01h19.06V373.5h-30.02zM337.33 378.7c-2.103-2.057-4.629-3.64-7.51-4.704-2.743-1.015-5.786-1.528-9.041-1.528l-.356.002c-3.362 0-6.503.556-9.338 1.651-2.857 1.106-5.357 2.707-7.434 4.761-2.073 2.052-3.714 4.559-4.877 7.45-1.158 2.876-1.748 6.104-1.748 9.59 0 3.417.59 6.582 1.753 9.403 1.163 2.829 2.807 5.297 4.88 7.329 2.073 2.03 4.572 3.621 7.425 4.724 2.834 1.096 5.975 1.651 9.339 1.651h.023c3.402-.043 6.57-.639 9.42-1.772 2.863-1.142 5.375-2.757 7.465-4.804 2.091-2.051 3.742-4.524 4.91-7.358 1.162-2.823 1.75-5.987 1.75-9.402 0-3.487-.588-6.705-1.748-9.568-1.168-2.874-2.82-5.371-4.913-7.425zm-4.644 16.762c0 1.96-.302 3.782-.896 5.413-.587 1.607-1.42 3.011-2.479 4.167-1.05 1.147-2.335 2.065-3.821 2.728-1.479.656-3.164.99-5.008.99-1.84 0-3.514-.333-4.973-.988-1.47-.662-2.747-1.578-3.799-2.729-1.062-1.156-1.895-2.559-2.479-4.167-.595-1.63-.896-3.451-.896-5.413 0-1.801.298-3.497.887-5.044.584-1.536 1.419-2.894 2.479-4.037 1.048-1.132 2.323-2.03 3.792-2.674 1.465-.642 3.145-.968 4.988-.968 1.848 0 3.539.326 5.025.971 1.481.643 2.766 1.541 3.812 2.671 1.062 1.143 1.896 2.501 2.479 4.036.589 1.548.889 3.245.889 5.044zM376.27 395.65c1.902-2.327 2.867-5.221 2.867-8.603 0-2.614-.508-4.84-1.506-6.613-.997-1.762-2.354-3.188-4.035-4.234-1.603-.995-3.445-1.705-5.482-2.114-1.938-.388-3.969-.583-6.037-.583h-16.021v44.487h10.961v-17.282h2.35l9.447 17.282h13.127l-11.199-18.646c2.262-.728 4.116-1.964 5.528-3.694zm-19.254-12.223h4.426c.844 0 1.73.054 2.636.16.784.094 1.503.283 2.132.568.496.225.888.553 1.193.998.283.415.428 1.031.428 1.836 0 .931-.16 1.643-.459 2.06-.34.472-.771.813-1.32 1.046-.686.289-1.459.477-2.301.554-.975.089-1.963.136-2.938.136h-3.795l-.002-7.358z"/>
    <path d="M394.82 386.38c1.05-1.132 2.325-2.03 3.793-2.674 1.464-.642 3.144-.968 4.988-.968 1.843 0 3.611.311 5.26.921 1.609.599 2.992 1.449 4.107 2.531l1.314 1.278 8.019-8.105-1.454-1.298c-2.355-2.103-5.066-3.586-8.058-4.407-2.879-.789-5.987-1.189-9.247-1.189-3.361 0-6.503.556-9.339 1.651-2.856 1.106-5.355 2.707-7.431 4.761-2.074 2.052-3.716 4.559-4.88 7.45-1.158 2.876-1.746 6.104-1.746 9.59 0 3.417.59 6.582 1.752 9.403 1.164 2.829 2.807 5.297 4.88 7.329 2.073 2.03 4.572 3.621 7.425 4.724 2.832 1.096 5.975 1.651 9.339 1.651 6.501 0 12.475-1.432 17.751-4.25l.979-.522v-23.814h-19.313v10.27h8.354v6.639c-.871.397-1.834.709-2.881.933-1.5.314-3.127.478-4.83.478-1.841 0-3.514-.333-4.973-.988-1.472-.662-2.748-1.578-3.801-2.729-1.06-1.156-1.893-2.559-2.478-4.167-.595-1.63-.896-3.451-.896-5.413 0-1.801.299-3.497.887-5.044.586-1.54 1.421-2.897 2.479-4.041zM437.69 407.72v-7.36h18.72v-10.27h-18.72v-6.32h19.75V373.5h-30.72v44.49h31.76v-10.27z"/>
  </g>
  <path fill="#1E2D41" d="m243.63 379.09-37.842-1.852 46.229-.034v-3.727h-52.125l-.001 7.798v6.201c0 .115-1.52-9.144-1.87-11.734h-4.098v13.029c0 .123-1.753-10.888-1.939-12.264H164.07c1.902 1.648 12.401 10.598 19.865 14.28 3.741 1.846 8.33 1.86 12.414 1.974 2.075.06 4.25.217 5.803 1.754 2.255 2.236 2.758 5.704.814 8.33-1.922 2.594-7.335 3.156-7.335 3.156l-4.509 5.531v6.424h10.251l.319-6.348 8.863-6.285c-.946.757-3.058 2.783-6.229 7.666-.717 1.102-1.275 2.306-1.711 3.49 2.238-1.896 6.84-3.194 12.153-3.194 5.307 0 9.903 1.295 12.146 3.188-.437-1.185-.994-2.385-1.709-3.483-3.172-4.883-5.284-6.909-6.229-7.666l8.863 6.285.32 6.348h9.565v-6.424l-4.507-5.531s-6.675-.425-8.423-3.156c-5.032-7.869 2.115-20.082 18.836-23.756z"/>
</svg>
