<?xml version="1.0" encoding="utf-8"?>
<!-- Generator: Adobe Illustrator 16.2.0, SVG Export Plug-In . SVG Version: 6.00 Build 0)  -->
<!DOCTYPE svg PUBLIC "-//W3C//DTD SVG 1.1//EN" "http://www.w3.org/Graphics/SVG/1.1/DTD/svg11.dtd">
<svg version="1.1" id="Layer_1" xmlns="http://www.w3.org/2000/svg" xmlns:xlink="http://www.w3.org/1999/xlink" x="0px" y="0px"
	 width="100%" height="100%" viewBox="164.072 372.466 294.41 46.56" enable-background="new 164.072 372.466 294.41 46.56"
	 xml:space="preserve">
<g>
	<g>
		<polygon fill="#DFA86A" points="266.155,417.99 277.115,417.99 277.115,401.054 295.088,401.054 295.088,390.784 277.115,390.784 
			277.115,383.772 296.182,383.772 296.182,373.503 266.155,373.503 		"/>
		<path fill="#DFA86A" d="M337.332,378.696c-2.103-2.057-4.629-3.64-7.51-4.704c-2.743-1.015-5.786-1.528-9.041-1.528l-0.356,0.002
			c-3.362,0-6.503,0.556-9.338,1.651c-2.857,1.106-5.357,2.707-7.434,4.761c-2.073,2.052-3.714,4.559-4.877,7.45
			c-1.158,2.876-1.748,6.104-1.748,9.59c0,3.417,0.59,6.582,1.753,9.403c1.163,2.829,2.807,5.297,4.88,7.329
			c2.073,2.03,4.572,3.621,7.425,4.724c2.834,1.096,5.975,1.651,9.339,1.651h0.011h0.012c3.402-0.043,6.57-0.639,9.42-1.772
			c2.863-1.142,5.375-2.757,7.465-4.804c2.091-2.051,3.742-4.524,4.91-7.358c1.162-2.823,1.75-5.987,1.75-9.402
			c0-3.487-0.588-6.705-1.748-9.568C341.077,383.247,339.425,380.75,337.332,378.696z M332.688,395.458
			c0,1.96-0.302,3.782-0.896,5.413c-0.587,1.607-1.42,3.011-2.479,4.167c-1.05,1.147-2.335,2.065-3.821,2.728
			c-1.479,0.656-3.164,0.99-5.008,0.99c-1.84,0-3.514-0.333-4.973-0.988c-1.47-0.662-2.747-1.578-3.799-2.729
			c-1.062-1.156-1.895-2.559-2.479-4.167c-0.595-1.63-0.896-3.451-0.896-5.413c0-1.801,0.298-3.497,0.887-5.044
			c0.584-1.536,1.419-2.894,2.479-4.037c1.048-1.132,2.323-2.03,3.792-2.674c1.465-0.642,3.145-0.968,4.988-0.968
			c1.848,0,3.539,0.326,5.025,0.971c1.481,0.643,2.766,1.541,3.812,2.671c1.062,1.143,1.896,2.501,2.479,4.036
			C332.388,391.962,332.688,393.659,332.688,395.458z"/>
		<path fill="#DFA86A" d="M376.266,395.65c1.902-2.327,2.867-5.221,2.867-8.603c0-2.614-0.508-4.84-1.506-6.613
			c-0.997-1.762-2.354-3.188-4.035-4.234c-1.603-0.995-3.445-1.705-5.482-2.114c-1.938-0.388-3.969-0.583-6.037-0.583h-16.021
			v44.487h10.961v-17.282h2.35l9.447,17.282h13.127l-11.199-18.646C373,398.616,374.854,397.38,376.266,395.65z M357.012,383.427
			h4.426c0.844,0,1.73,0.054,2.636,0.16c0.784,0.094,1.503,0.283,2.132,0.568c0.496,0.225,0.888,0.553,1.193,0.998
			c0.283,0.415,0.428,1.031,0.428,1.836c0,0.931-0.16,1.643-0.459,2.06c-0.34,0.472-0.771,0.813-1.32,1.046
			c-0.686,0.289-1.459,0.477-2.301,0.554c-0.975,0.089-1.963,0.136-2.938,0.136h-3.795L357.012,383.427L357.012,383.427z"/>
		<path fill="#DFA86A" d="M394.823,386.377c1.05-1.132,2.325-2.03,3.793-2.674c1.464-0.642,3.144-0.968,4.988-0.968
			c1.843,0,3.611,0.311,5.26,0.921c1.609,0.599,2.992,1.449,4.107,2.531l1.314,1.278l8.019-8.105l-1.454-1.298
			c-2.355-2.103-5.066-3.586-8.058-4.407c-2.879-0.789-5.987-1.189-9.247-1.189c-3.361,0-6.503,0.556-9.339,1.651
			c-2.856,1.106-5.355,2.707-7.431,4.761c-2.074,2.052-3.716,4.559-4.88,7.45c-1.158,2.876-1.746,6.104-1.746,9.59
			c0,3.417,0.59,6.582,1.752,9.403c1.164,2.829,2.807,5.297,4.88,7.329c2.073,2.03,4.572,3.621,7.425,4.724
			c2.832,1.096,5.975,1.651,9.339,1.651c6.501,0,12.475-1.432,17.751-4.25l0.979-0.522v-23.814h-19.313v10.27h8.354v6.639
			c-0.871,0.397-1.834,0.709-2.881,0.933c-1.5,0.314-3.127,0.478-4.83,0.478c-1.841,0-3.514-0.333-4.973-0.988
			c-1.472-0.662-2.748-1.578-3.801-2.729c-1.06-1.156-1.893-2.559-2.478-4.167c-0.595-1.63-0.896-3.451-0.896-5.413
			c0-1.801,0.299-3.497,0.887-5.044C392.93,388.878,393.765,387.521,394.823,386.377z"/>
		<polygon fill="#DFA86A" points="437.686,407.72 437.686,400.362 456.407,400.362 456.407,390.093 437.686,390.093 
			437.686,383.772 457.444,383.772 457.444,373.503 426.725,373.503 426.725,417.99 458.482,417.99 458.482,407.72 		"/>
	</g>
	<path fill="#1E2D41" d="M243.632,379.091l-37.842-1.852l46.229-0.034v-3.727h-52.125l-0.001,7.798v6.201
		c0,0.115-1.52-9.144-1.87-11.734h-4.098v6.826v6.203c0,0.123-1.753-10.888-1.939-12.264c-10.429,0-27.914,0-27.914,0
		c1.902,1.648,12.401,10.598,19.865,14.28c3.741,1.846,8.33,1.86,12.414,1.974c2.075,0.06,4.25,0.217,5.803,1.754
		c2.255,2.236,2.758,5.704,0.814,8.33c-1.922,2.594-7.335,3.156-7.335,3.156l-4.509,5.531v6.424h10.251l0.319-6.348l8.863-6.285
		c-0.946,0.757-3.058,2.783-6.229,7.666c-0.717,1.102-1.275,2.306-1.711,3.49c2.238-1.896,6.84-3.194,12.153-3.194
		c5.307,0,9.903,1.295,12.146,3.188c-0.437-1.185-0.994-2.385-1.709-3.483c-3.172-4.883-5.284-6.909-6.229-7.666l8.863,6.285
		l0.32,6.348h9.565v-6.424l-4.507-5.531c0,0-6.675-0.425-8.423-3.156C219.764,394.978,226.911,382.765,243.632,379.091z"/>
</g>
</svg>
